<svg xmlns="http://www.w3.org/2000/svg" width="184.5" height="39.5"><rect id="backgroundrect" width="100%" height="100%" fill="none"/><style>.st0{fill:#00aa4e}</style><g class="currentLayer"><g id="svg_1"><path class="st0" d="M29.03 35.848c1.4 1.8 3.8 2.6 5.8 2.6 2.8 0 4.8-1.9 4.8-4.1v-29.3c0-2.3-1.9-4.1-4.1-4.1h-.2c-2.3 0-4.1 1.9-4.1 4.1v21.3l-19-22.8c-1.4-1.8-3.8-2.6-5.8-2.6-2.8 0-4.8 1.9-4.8 4.1v29.3c0 2.3 1.9 4.1 4.1 4.1h.2c2.3 0 4.1-1.9 4.1-4.1v-21.3l19 22.8z" id="svg_2"/><g id="svg_3"><path class="st0" d="M181.43 31.248l-11.6-11.6 11.6-11.6c1.6-1.6 1.6-4.2 0-5.8l-.2-.2c-1.6-1.6-4.2-1.6-5.8 0l-10.1 10.1-.7.7-.4.4c-.2.2-.4.2-.6 0l-.5-.5-.6-.6-10.1-10.1c-1.6-1.6-4.2-1.6-5.8 0l-.2.2c-1.6 1.6-1.6 4.2 0 5.8l11.4 11.6-11.6 11.6c-1.6 1.6-1.6 4.2 0 5.8l.2.2c1.6 1.6 4.2 1.6 5.8 0l10.1-10.1.7-.7.4-.4c.2-.2.4-.2.6 0l.3.3.9.9 10.1 10.1c1.6 1.6 4.2 1.6 5.8 0l.2-.2c1.7-1.7 1.7-4.3.1-5.9z" id="svg_4"/></g><path class="st0" d="M113.33 35.848c-1.4 1.8-3.8 2.6-5.8 2.6-2.8 0-4.8-1.9-4.8-4.1v-29.3c0-2.3 1.9-4.1 4.1-4.1h.2c2.3 0 4.1 1.9 4.1 4.1v21.3l19-22.8c1.4-1.8 3.8-2.6 5.8-2.6 2.8 0 4.8 1.9 4.8 4.1v29.3c0 2.3-1.9 4.1-4.1 4.1h-.2c-2.3 0-4.1-1.9-4.1-4.1v-21.3l-19 22.8z" id="svg_5"/><path class="st0" d="M97.03 4.848c0-2.2-1.7-4-3.7-4s-3.7 1.8-3.7 4v9.6c0 .2.2.4.4.4h6.6c.2 0 .4-.2.4-.4v-9.6z" id="svg_6"/><path class="st0" d="M97.03 18.748c0-.2-.2-.4-.4-.4h-6.6c-.2 0-.4.2-.4.4v15.8c0 2.1 1.7 3.9 3.7 3.9s3.7-1.7 3.7-3.9v-15.8z" id="svg_7"/><path class="st0" d="M86.23 18.348h-23.6c-2.2 0-4 1.5-4 3.6s1.8 3.5 4 3.5h11.9l-3.2 5.4c-.2.4-.5.5-.9.5h-11.6c-.5 0-.7-.1-.9-.5l-5.9-10.8c-.2-.3-.2-.6 0-1l5.9-10.5c.2-.4.5-.5.9-.5h11.6c.5 0 .7.1 1 .5l3.6 6c.2.3.3.4.7.4h8.2l-7.9-13.3c-.2-.3-.4-.4-.8-.4h-21.2c-.5 0-.7.2-.9.6l-9.3 17.1c-.3.5-.3.8 0 1.3l9.8 17.6c.2.4.5.5 1 .5h20.3c.5 0 .8-.1 1-.6l10.3-19.4z" id="svg_8"/></g></g></svg>