<?xml version="1.0" encoding="UTF-8" standalone="no"?>
<!-- Created with Inkscape (http://www.inkscape.org/) -->

<svg
   xmlns:dc="http://purl.org/dc/elements/1.1/"
   xmlns:cc="http://creativecommons.org/ns#"
   xmlns:rdf="http://www.w3.org/1999/02/22-rdf-syntax-ns#"
   xmlns:svg="http://www.w3.org/2000/svg"
   xmlns="http://www.w3.org/2000/svg"
   xmlns:sodipodi="http://sodipodi.sourceforge.net/DTD/sodipodi-0.dtd"
   xmlns:inkscape="http://www.inkscape.org/namespaces/inkscape"
   width="4in"
   height="6in"
   viewBox="0 0 101.6 152.4"
   version="1.1"
   id="svg8"
   inkscape:version="0.92.3 (2405546, 2018-03-11)"
   sodipodi:docname="flyers.svg"
   inkscape:export-filename="/home/aneto/Temp/qcoop_flyer.png"
   inkscape:export-xdpi="96"
   inkscape:export-ydpi="96"
   enable-background="new">
  <defs
     id="defs2">
    <clipPath
       id="clipPath1610"
       clipPathUnits="userSpaceOnUse">
      <path
         style="clip-rule:evenodd"
         inkscape:connector-curvature="0"
         id="path1608"
         d="M 0,0 H 1200 V 1800 H 0 Z" />
    </clipPath>
    <clipPath
       id="clipPath1642"
       clipPathUnits="userSpaceOnUse">
      <path
         style="clip-rule:evenodd"
         inkscape:connector-curvature="0"
         id="path1640"
         d="M 0,0 H 1200 V 1800 H 0 Z" />
    </clipPath>
    <clipPath
       id="clipPath1730"
       clipPathUnits="userSpaceOnUse">
      <path
         style="clip-rule:evenodd"
         inkscape:connector-curvature="0"
         id="path1728"
         d="M 0,0 H 1200 V 1800 H 0 Z" />
    </clipPath>
    <clipPath
       id="clipPath1610-6"
       clipPathUnits="userSpaceOnUse">
      <path
         style="clip-rule:evenodd"
         inkscape:connector-curvature="0"
         id="path1608-0"
         d="M 0,0 H 1200 V 1800 H 0 Z" />
    </clipPath>
    <clipPath
       id="clipPath1642-8"
       clipPathUnits="userSpaceOnUse">
      <path
         style="clip-rule:evenodd"
         inkscape:connector-curvature="0"
         id="path1640-3"
         d="M 0,0 H 1200 V 1800 H 0 Z" />
    </clipPath>
    <clipPath
       id="clipPath1730-7"
       clipPathUnits="userSpaceOnUse">
      <path
         style="clip-rule:evenodd"
         inkscape:connector-curvature="0"
         id="path1728-8"
         d="M 0,0 H 1200 V 1800 H 0 Z" />
    </clipPath>
  </defs>
  <sodipodi:namedview
     id="base"
     pagecolor="#ffffff"
     bordercolor="#666666"
     borderopacity="1.0"
     inkscape:pageopacity="0.0"
     inkscape:pageshadow="2"
     inkscape:zoom="0.9860825"
     inkscape:cx="-118.73808"
     inkscape:cy="123.16487"
     inkscape:document-units="mm"
     inkscape:current-layer="layer1"
     showgrid="false"
     units="in"
     inkscape:window-width="1638"
     inkscape:window-height="1021"
     inkscape:window-x="1962"
     inkscape:window-y="0"
     inkscape:window-maximized="1"
     showguides="true"
     inkscape:guide-bbox="true"
     inkscape:snap-text-baseline="true">
    <sodipodi:guide
       position="76.595808,168.72503"
       orientation="0,1"
       id="guide1353"
       inkscape:locked="false" />
  </sodipodi:namedview>
  <metadata
     id="metadata5">
    <rdf:RDF>
      <cc:Work
         rdf:about="">
        <dc:format>image/svg+xml</dc:format>
        <dc:type
           rdf:resource="http://purl.org/dc/dcmitype/StillImage" />
        <dc:title />
      </cc:Work>
    </rdf:RDF>
  </metadata>
  <g
     inkscape:groupmode="layer"
     id="layer3"
     inkscape:label="Layer 3">
    <rect
       style="fill:#242930;fill-opacity:1;stroke:none;stroke-width:0.25866851;stroke-miterlimit:4;stroke-dasharray:none;stroke-opacity:1"
       id="rect1215"
       width="101.6"
       height="152.39999"
       x="0"
       y="1.0583333e-05" />
  </g>
  <g
     inkscape:groupmode="layer"
     id="layer2"
     inkscape:label="Layer 2"
     style="">
    <g
       transform="matrix(0.35277777,0,0,-0.35277777,0,152.40001)"
       inkscape:label="Layout 1"
       id="g1592">
      <g
         transform="matrix(0.24,0,0,-0.24,0,432)"
         id="g1594"
         style="opacity:0.145">
        <g
           id="g1596"
           style="">
          <g
             id="g1598"
             style="" />
        </g>
        <g
           id="g1600"
           style="">
          <g
             id="g1602"
             style="" />
        </g>
        <g
           id="g1604"
           style="" />
        <g
           id="g1636"
           style="stroke:#ffffff">
          <g
             clip-path="url(#clipPath1642-8)"
             id="g1638"
             style="stroke:#ffffff">
            <g
               transform="scale(11.811024)"
               id="g1644"
               style="stroke:#ffffff" />
            <g
               id="g1646"
               style="stroke:#ffffff" />
            <g
               id="g1648"
               style="stroke:#ffffff">
              <path
                 style="fill:none;stroke:#ffffff;stroke-width:3.07086611;stroke-linecap:square;stroke-linejoin:bevel;stroke-miterlimit:10;stroke-dasharray:none;stroke-opacity:1"
                 d="m 504.26344,160.4121 c -17.13975,-44.09676 10.0924,-57.31528 0,0 z"
                 id="path1650"
                 inkscape:connector-curvature="0" />
              <path
                 style="fill:none;stroke:#ffffff;stroke-width:3.07086611;stroke-linecap:square;stroke-linejoin:bevel;stroke-miterlimit:10;stroke-dasharray:none;stroke-opacity:1"
                 d="m 504.26344,230.8256 c -56.63503,2.17767 -126.49666,-72.15295 -88.95751,-124.49913 38.58505,-28.405501 170.16421,-93.240067 145.3048,2.9131 -7.90422,44.99233 -33.94494,82.80631 -56.34729,121.58603 z"
                 id="path1652"
                 inkscape:connector-curvature="0" />
              <path
                 style="fill:none;stroke:#ffffff;stroke-width:3.07086611;stroke-linecap:square;stroke-linejoin:bevel;stroke-miterlimit:10;stroke-dasharray:none;stroke-opacity:1"
                 d="M 504.26344,309.55068 C 432.27244,279.45269 378.6936,204.2297 360.46049,131.18153 381.00345,65.393074 472.75832,45.792582 531.03422,17.35234 c 76.17345,-45.972176 113.93494,55.198963 60.2958,103.83195 -27.4286,63.73184 -52.1528,128.12923 -87.06658,188.36639 z"
                 id="path1654"
                 inkscape:connector-curvature="0" />
              <path
                 style="fill:none;stroke:#ffffff;stroke-width:3.07086611;stroke-linecap:square;stroke-linejoin:bevel;stroke-miterlimit:10;stroke-dasharray:none;stroke-opacity:1"
                 d="M 519.3,385.89014 C 439.58745,361.14569 400.28442,260.36838 353.10217,194.65879 276.01478,103.33357 388.23793,46.91231 461.64302,17.346815 518.08268,-11.797136 625.23551,-83.001188 653.14011,12.985798 678.56277,77.440497 609.35531,120.94674 593.47398,177.95119 568.59967,236.90627 551.24503,298.89105 549.37316,363.33526 539.34877,370.85355 529.32439,378.37185 519.3,385.89014 Z"
                 id="path1656"
                 inkscape:connector-curvature="0" />
              <path
                 style="fill:none;stroke:#ffffff;stroke-width:3.07086611;stroke-linecap:square;stroke-linejoin:bevel;stroke-miterlimit:10;stroke-dasharray:none;stroke-opacity:1"
                 d="M 549.37312,470.09489 C 455.30762,445.88931 422.36529,342.23894 369.90548,271.75585 330.25679,216.08064 300.24065,152.16078 284.90568,85.709709 340.77035,22.001353 452.96963,13.411008 522.32409,-44.965199 594.15404,-113.42496 693.65537,-61.983071 693.48045,33.620262 669.72555,127.88896 583.23696,203.18089 583.08854,309.25048 c 2.58272,56.36269 4.42069,114.58239 -33.71542,160.84441 z"
                 id="path1658"
                 inkscape:connector-curvature="0" />
              <path
                 style="fill:none;stroke:#ffffff;stroke-width:3.07086611;stroke-linecap:square;stroke-linejoin:bevel;stroke-miterlimit:10;stroke-dasharray:none;stroke-opacity:1"
                 d="M 549.37312,573.84716 C 504.96021,492.20056 417.80824,441.56614 387.6572,350.90551 337.25388,273.82672 294.77583,192.41608 255.02966,109.64107 198.80753,43.561369 286.655,5.8971784 344.74322,13.738324 444.82854,-11.080306 520.06767,-96.364202 622.25759,-115.69454 c 77.0672,11.84965 136.50046,128.498826 91.78672,195.577159 -51.41564,58.566891 -86.04662,127.787431 -100.31799,204.733761 -9.95253,72.27187 12.838,148.47403 -25.54715,216.37257 -12.95509,24.27316 -27.50933,47.72549 -38.80605,72.85821 z"
                 id="path1660"
                 inkscape:connector-curvature="0" />
              <path
                 style="fill:none;stroke:#ffffff;stroke-width:3.07086611;stroke-linecap:square;stroke-linejoin:bevel;stroke-miterlimit:10;stroke-dasharray:none;stroke-opacity:1"
                 d="M 594.48281,662.99248 C 543.52955,715.96432 475.5489,672.71054 497.30674,603.70167 488.88842,512.34555 395.87428,466.00361 370.51988,383.19767 329.20208,301.62409 281.03907,224.04613 241.30505,141.6598 220.23768,93.551184 105.3662,8.1711785 212.46448,-8.5566405 282.49415,-10.947883 360.29546,-0.53312226 419.63037,-46.615567 501.58728,-78.838605 587.07796,-179.31499 678.29944,-139.4917 716.36741,-87.44284 789.94533,-24.787176 771.25479,46.626019 732.5061,107.48526 666.56312,153.1033 655.9729,229.82147 c -41.78479,81.34823 6.4776,171.06802 -30.99686,253.75928 -22.94998,57.96057 -10.24702,122.46964 -30.49323,179.41173 z"
                 id="path1662"
                 inkscape:connector-curvature="0" />
              <path
                 style="fill:none;stroke:#ffffff;stroke-width:3.07086611;stroke-linecap:square;stroke-linejoin:bevel;stroke-miterlimit:10;stroke-dasharray:none;stroke-opacity:1"
                 d="M 512.22397,746.76761 C 401.66122,792.58449 468.77233,638.38788 457.8154,584.98059 435.25724,502.9604 349.53006,457.3826 331.33983,372.686 300.05586,304.66421 259.53652,241.00046 229.24518,172.19988 194.13738,102.26153 119.40271,61.965483 83.636071,-5.4798296 120.66048,-81.232184 254.30261,-23.17287 327.28277,-39.352955 c 94.23009,-20.745362 167.8477,-90.904025 257.07728,-125.338695 70.38867,-42.48569 150.92081,-2.92321 177.2483,71.769142 50.64296,25.602783 92.27911,75.587335 49.06306,133.614357 -30.37375,64.562061 -107.71444,95.192251 -123.19064,169.151861 -35.47779,80.61325 -6.40639,165.78741 -26.36666,247.98524 -40.6995,71.62232 -0.5382,160.55585 -38.62403,227.18508 -24.49184,38.09351 -75.99648,36.54002 -110.26611,61.75358 z"
                 id="path1664"
                 inkscape:connector-curvature="0" />
              <path
                 style="fill:none;stroke:#ffffff;stroke-width:3.07086611;stroke-linecap:square;stroke-linejoin:bevel;stroke-miterlimit:10;stroke-dasharray:none;stroke-opacity:1"
                 d="m 490.99589,791.8773 c -45.27697,29.46685 -107.62031,58.90779 -93.22136,-23.54628 3.1775,-83.12439 64.95813,-184.4765 -13.56814,-251.51658 C 331.3715,467.72956 305.33005,401.32392 279.79376,335.73636 233.68665,234.10268 186.26055,126.54074 90.648613,61.377829 36.164247,5.4734764 -44.429059,3.3484343 -110.47221,-29.802874 -130.62057,-48.474893 -115.1475,-86.68927 -120,-113.75279 c 6.67268,-19.73638 -14.60269,-67.42082 12.97999,-66.24721 39.30169,0 78.603386,0 117.905081,0 18.781569,82.177155 92.670629,121.572538 172.750259,105.390406 83.21033,17.589055 171.35307,14.693473 243.0786,-35.987226 73.7452,-48.62852 154.53844,-85.74589 245.15862,-68.94502 72.40307,-35.1887 102.68509,71.32989 167.23432,40.46573 38.38728,-61.70482 120.57868,-43.36006 80.85079,35.04616 C 889.04803,-35.259697 850.15284,30.684444 807.74932,92.914724 734.48237,141.23389 707.2435,221.38204 694.89057,304.30986 c -1.0158,65.11918 15.07466,131.38695 -15.43238,193.35671 -43.33959,76.72976 42.76797,204.87769 -69.8716,237.358 -41.13001,16.05254 -81.25641,33.11009 -118.5907,56.85273 z"
                 id="path1666"
                 inkscape:connector-curvature="0" />
              <path
                 style="fill:none;stroke:#ffffff;stroke-width:3.07086611;stroke-linecap:square;stroke-linejoin:bevel;stroke-miterlimit:10;stroke-dasharray:none;stroke-opacity:1"
                 d="M 143.38597,1203.5032 C 76.741968,1199.3506 41.137244,1102.3127 90.998344,1056.945 c 79.513806,-82.82312 123.869916,66.6697 63.119336,119.2894 l -5.93977,13.632 z"
                 id="path1668"
                 inkscape:connector-curvature="0" />
              <path
                 style="fill:none;stroke:#ffffff;stroke-width:3.07086611;stroke-linecap:square;stroke-linejoin:bevel;stroke-miterlimit:10;stroke-dasharray:none;stroke-opacity:1"
                 d="m 1135.799,1332.6366 c 14.7248,-30.7619 -18.0009,-96.2219 0,0 z"
                 id="path1670"
                 inkscape:connector-curvature="0" />
              <path
                 style="fill:none;stroke:#ffffff;stroke-width:3.07086611;stroke-linecap:square;stroke-linejoin:bevel;stroke-miterlimit:10;stroke-dasharray:none;stroke-opacity:1"
                 d="M 143.38597,1457.2451 C 98.893764,1392.3773 93.935873,1315.967 74.385637,1242.5656 49.8463,1181.2486 -11.946024,1106.774 51.737832,1047.8282 88.304607,1000.3858 196.81515,942.51546 231.47906,983.19955 c -22.24901,85.73615 -23.22166,174.99805 -59.9963,257.32925 -13.72192,71.3753 -18.97729,144.5401 -28.09679,216.7163 z"
                 id="path1672"
                 inkscape:connector-curvature="0" />
              <path
                 style="fill:none;stroke:#ffffff;stroke-width:3.07086611;stroke-linecap:square;stroke-linejoin:bevel;stroke-miterlimit:10;stroke-dasharray:none;stroke-opacity:1"
                 d="m 98.276285,1581.2968 c -11.430859,-27.6722 15.090125,-44.6267 0,0 z"
                 id="path1674"
                 inkscape:connector-curvature="0" />
              <path
                 style="fill:none;stroke:#ffffff;stroke-width:3.07086611;stroke-linecap:square;stroke-linejoin:bevel;stroke-miterlimit:10;stroke-dasharray:none;stroke-opacity:1"
                 d="M -22.016205,1829.4 C -85.29822,1818.3838 -28.795897,1715.1946 6.9948452,1685.692 70.089648,1629.0527 33.215192,1538.4514 62.973055,1468.5226 57.342754,1394.3953 60.221785,1316.5864 34.417443,1246.187 18.287489,1190.2137 -47.635071,1132.5232 -11.141248,1074.0064 30.106029,1014.3135 87.75839,965.46905 158.42071,944.58839 264.91642,901.38659 374.16951,816.53788 380.79537,692.80124 392.20222,638.28136 408.83206,568.99561 355.89679,529.73026 292.81864,480.82142 273.19591,401.50185 241.80089,331.95713 210.15421,235.97478 161.54702,140.59006 72.860684,85.563537 23.550112,26.080058 -83.893514,43.003123 -120,-16.450933 c 0,-54.516355 0,-109.032707 0,-163.549067 55.17507,0 110.3501393,0 165.525209,0 20.118595,85.703264 107.014701,79.89438 176.829651,83.022378 64.80076,15.192017 128.92688,-3.841548 185.41036,-35.793208 50.12086,-26.2755 98.49526,-56.76562 157.23835,-47.22917 135.26762,0 270.53524,0 405.80286,0 -8.88684,108.768341 -88.7892,191.465575 -140.52879,282.11172 -75.25498,49.84787 -99.04494,134.92284 -107.15335,219.72579 26.33493,95.58203 -31.22599,182.78878 -30.16681,275.99547 46.98755,95.6967 -26.07287,168.16386 -117.79613,178.89173 -81.58307,27.09504 -144.21724,84.12496 -211.79088,133.80104 -66.22196,42.83351 -133.25844,108.80975 -126.32771,194.43985 -14.79237,75.4027 -47.70383,147.008 -43.49759,225.6719 -5.46697,81.1837 -2.92183,162.9557 -24.54787,242.1249 6.01437,81.478 -46.0952,136.8345 -103.799954,184.6136 -24.812695,27.855 -47.468873,65.3063 -87.213551,72.024 z"
                 id="path1676"
                 inkscape:connector-curvature="0" />
              <path
                 style="fill:none;stroke:#ffffff;stroke-width:3.07086611;stroke-linecap:square;stroke-linejoin:bevel;stroke-miterlimit:10;stroke-dasharray:none;stroke-opacity:1"
                 d="m -37.052766,1927.1377 c -78.284494,73.3969 -57.581611,-90.0479 -55.345363,-134.6967 14.220742,-88.4578 125.992191,-136.486 110.103094,-234.2429 7.549082,-123.1487 22.749512,-257.5106 -46.118721,-367.6061 -43.898585,-53.6214 -65.790132,-121.2879 8.195196,-160.5181 C 20.282434,988.62304 63.824388,949.26936 120.69597,932.52176 217.4006,888.51466 320.48858,821.81901 350.78154,713.98617 368.36435,643.47156 372.0899,553.88404 294.4843,517.63597 253.91522,449.07593 212.94799,380.66232 200.15959,300.23656 161.61624,178.81331 56.2034,83.874564 -65.399018,49.793166 -132.25423,54.408222 -120.70396,-9.6800476 -120,-53.871697 c 0,-42.042767 0,-84.085533 0,-126.128303 65.945179,0 131.890357,0 197.835536,0 17.771021,65.20783 101.034284,51.33592 153.202554,58.21852 79.32428,14.66085 149.19197,-32.57026 219.77723,-58.21852 183.47733,0 366.95465,0 550.43198,0 -16.36709,113.826043 -95.76339,203.017056 -155.33769,297.04972 -47.76704,44.01873 -87.99004,94.9652 -88.62888,163.11499 -14.1563,73.31501 15.49613,148.11729 -19.6353,218.47604 -28.9976,64.71444 -7.29459,130.37681 -1.62878,197.11321 -1.33232,100.95718 -132.76133,80.73047 -195.95331,122.39164 -79.32558,35.09762 -131.2551,107.82281 -205.38124,151.13955 -63.55751,35.78045 -78.91897,107.23805 -79.83545,174.16455 -31.04904,72.7626 -35.32422,152.1785 -34.25304,230.5696 18.3667,90.0599 -24.17478,172.5478 -26.92617,261.7309 -6.83825,92.9672 -106.832943,124.1208 -147.821262,197.628 -31.135343,28.0874 -65.274804,54.4323 -82.898944,93.7595 z"
                 id="path1678"
                 inkscape:connector-curvature="0" />
              <path
                 style="fill:none;stroke:#ffffff;stroke-width:3.07086611;stroke-linecap:square;stroke-linejoin:bevel;stroke-miterlimit:10;stroke-dasharray:none;stroke-opacity:1"
                 d="m 1320,983.7038 c -77.1428,45.6668 -110.7767,133.8863 -163.0269,202.7734 -33.8911,70.7372 -150.7689,97.5863 -138.0612,188.4053 19.8592,37.1729 -19.9507,138.3097 53.5548,96.4059 35.0507,-32.6982 51.7364,-86.6281 107.7808,-67.8656 12.3154,-62.0118 -6.7208,-142.9349 60.2689,-189.3431 28.7476,-33.0637 53.7609,-69.6892 79.4836,-104.4925"
                 id="path1680"
                 inkscape:connector-curvature="0" />
              <path
                 style="fill:none;stroke:#ffffff;stroke-width:3.07086611;stroke-linecap:square;stroke-linejoin:bevel;stroke-miterlimit:10;stroke-dasharray:none;stroke-opacity:1"
                 d="m 1320,958.18169 c -128.4799,56.49801 -141.1326,227.14421 -264.3534,290.40921 -30.1955,46.1469 -131.1544,64.5679 -96.34009,127.5529 57.27139,54.2145 5.16567,124.3856 -38.03641,168.4359 -19.5457,27.1119 -129.01685,99.5985 -58.04527,109.8932 69.82398,-39.5416 132.80222,-87.446 194.36067,-138.8327 44.1843,-26.7441 88.7159,-103.0994 127.8881,-24.8446 20.4626,41.496 115.9231,99.7852 90.8896,11.0291 -33.4915,-56.8093 -49.9168,-125.9583 -59.768,-189.6076 9.9985,-65.2451 68.8276,-110.9754 103.4048,-163.8758"
                 id="path1682"
                 inkscape:connector-curvature="0" />
              <path
                 style="fill:none;stroke:#ffffff;stroke-width:3.07086611;stroke-linecap:square;stroke-linejoin:bevel;stroke-miterlimit:10;stroke-dasharray:none;stroke-opacity:1"
                 d="m 1320,936.04992 c -73.0488,25.26476 -119.0458,88.52888 -151.9458,154.64418 -40.4371,81.9613 -113.1362,138.0239 -189.5049,183.9547 -40.65645,3.6998 -130.42433,4.7067 -98.61271,70.6838 52.79045,38.1814 102.93197,106.4386 41.85168,163.2621 -60.08653,59.4085 -121.16281,117.7461 -189.48365,167.7658 -77.59143,37.5451 -54.2831,109.1555 -20.34632,164.3884 -32.30364,60.4248 54.70668,49.4403 38.23901,-7.349 0.42428,-96.4873 94.52301,-128.0914 160.96595,-173.1595 70.72794,-37.6588 121.52764,-101.3766 188.48854,-143.851 51.3739,-54.1844 95.6489,39.7483 138.2173,64.4649 28.0096,25.3756 104.8643,76.3432 81.4156,-2.7075 17.8929,-78.7274 -55.6358,-132.7387 -66.3522,-207.296 -31.5587,-73.337 23.9134,-132.9409 67.0677,-185.269"
                 id="path1684"
                 inkscape:connector-curvature="0" />
              <path
                 style="fill:none;stroke:#ffffff;stroke-width:3.07086611;stroke-linecap:square;stroke-linejoin:bevel;stroke-miterlimit:10;stroke-dasharray:none;stroke-opacity:1"
                 d="m 1320,913.04631 c -65.8806,27.26783 -128.9985,70.02815 -154.6645,139.86029 -42.4845,83.6766 -107.909,162.0765 -199.21603,192.869 -61.10861,-18.5279 -114.32533,13.3766 -151.99058,62.2254 -87.36318,-0.098 -43.0428,122.8867 29.06387,77.7731 72.74517,-7.5339 104.37072,89.1108 41.31927,127.848 -67.4652,70.606 -147.34315,126.5673 -223.91101,186.3029 -66.51738,52.5947 66.99673,118.9536 -5.93428,164.8869 -31.92128,28.2438 -52.74066,156.6273 14.48858,87.4674 80.22951,-12.3457 130.01154,-65.2655 118.78812,-148.4855 19.36457,-80.5067 113.89257,-103.0341 173.69959,-146.9052 65.07117,-33.6229 102.07267,-105.6962 174.15597,-126.8528 50.6462,41.3229 131.288,141.7154 184.201,121.3178 0,-63.6872 0,-127.3743 0,-191.0615 -39.1498,-62.6272 -77.15,-150.9548 -17.867,-214.6972 l 8.8602,-11.6207 9.0068,-11.4279"
                 id="path1686"
                 inkscape:connector-curvature="0" />
              <path
                 style="fill:none;stroke:#ffffff;stroke-width:3.07086611;stroke-linecap:square;stroke-linejoin:bevel;stroke-miterlimit:10;stroke-dasharray:none;stroke-opacity:1"
                 d="m 1320,556.65878 c -67.345,47.1788 18.4616,87.55598 0,146.16767 0,62.23618 0,124.47237 0,186.70856 -66.0422,32.94061 -143.1347,66.66648 -169.3892,141.76359 -39.75,78.7363 -98.2432,168.2979 -192.2147,182.4295 -77.76195,-39.9428 -121.80112,56.8264 -195.6984,55.3044 -83.86396,36.2103 -29.584,145.0851 23.62161,169.9788 44.52059,-25.8148 124.30336,-16.9065 86.98637,46.8181 -75.41883,83.2318 -163.71068,156.3902 -263.78671,208.2418 -40.78921,67.9304 93.87602,124.2598 0.53824,182.3236 -19.29176,36.9244 -76.62717,129.5335 12.10126,103.3239 63.21777,-9.0201 187.36493,-0.1406 182.28154,-91.6963 -24.65924,-104.7724 71.85043,-164.7596 153.039,-202.8966 70.48489,-13.3555 124.53409,-138.0139 190.55859,-102.8396 28.9512,62.6783 88.3513,87.0835 149.7985,103.4185 39.0664,18.3658 16.0109,-43.0993 22.1635,-65.2849 0,-72.4484 0,-144.8968 0,-217.3452 -23.2518,-42.2483 -33.3443,-100.3673 0,-140.407"
                 id="path1688"
                 inkscape:connector-curvature="0" />
              <path
                 style="fill:none;stroke:#ffffff;stroke-width:3.07086611;stroke-linecap:square;stroke-linejoin:bevel;stroke-miterlimit:10;stroke-dasharray:none;stroke-opacity:1"
                 d="m 1320,54.278353 c -67.4349,41.554038 28.8407,115.692227 -41.1937,158.998457 -64.745,61.26226 63.0148,49.76622 41.1937,110.78497 0,66.79194 0,133.58387 0,200.3758 -35.3502,44.61633 -136.2567,86.30375 -50.8224,132.2174 66.2959,9.40152 49.7736,70.3669 50.8224,119.39442 0,29.33364 0,58.66727 0,88.0009 -67.2086,45.89698 -166.2476,68.61282 -191.6977,155.3427 -35.1601,71.8659 -94.3737,178.3428 -189.79522,155.2422 -61.34836,-25.3521 -114.33888,51.2105 -173.09969,48.8307 -42.81213,39.2944 -154.16357,88.2488 -72.8837,148.7335 21.32423,54.3936 84.65295,107.6969 94.12046,151.7472 -43.44298,55.501 -99.14007,103.3683 -164.59249,132.6401 -84.4805,18.5521 -72.26011,96.4716 -20.44078,141.4217 8.3311,64.1409 -65.82283,112.5563 -64.71254,181.9916 99.51262,0 199.02524,0 298.53786,0 19.37548,-69.1619 -48.79188,-165.4014 34.71608,-216.2276 68.68258,-53.481 157.75432,-75.5371 220.53702,-137.366 74.7563,-25.8285 82.8313,100.018 167.3115,76.8116 21.5104,4.7179 42.4496,12.1245 61.9992,22.2847"
                 id="path1690"
                 inkscape:connector-curvature="0" />
              <path
                 style="fill:none;stroke:#ffffff;stroke-width:3.07086611;stroke-linecap:square;stroke-linejoin:bevel;stroke-miterlimit:10;stroke-dasharray:none;stroke-opacity:1"
                 d="m 1320,18.75314 c -65.129,20.752126 -78.2615,92.08239 -46.743,145.09293 -66.2575,39.53834 -92.9005,144.47936 8.9469,146.53253 50.5099,-7.96955 36.1786,45.51269 37.7961,76.27691 0,34.47657 0,68.95314 0,103.42971 -25.3586,66.82421 -122.0929,43.11087 -145.9172,89.13343 -3.2674,87.4914 113.9024,97.59107 145.9172,150.02555 0,36.58172 0,73.16345 0,109.74517 -59.7257,43.47394 -133.4675,66.98536 -189.5449,113.70641 -38.456,62.41212 -50.0763,147.65072 -122.269,184.23382 -64.43094,14.0933 -133.49601,-20.8635 -188.15487,38.38 -82.13291,-29.7077 -110.81327,90.7752 -190.51969,89.7497 -52.22723,50.8325 16.73878,119.0949 57.6418,153.7172 42.07562,61.1831 57.04737,149.682 -23.01033,187.1917 -46.76119,37.556 -141.5684,38.3754 -148.31909,110.2127 29.20244,56.7874 81.55163,124.0993 11.96375,179.1423 -31.63983,42.0927 -33.90054,103.8658 30.00051,84.6768 106.46107,0 212.92215,0 319.38322,0 4.99049,-61.2959 -58.88803,-125.9247 -8.57041,-182.0253 59.45217,-64.1543 151.03091,-80.4532 222.08831,-127.3608 64.0452,10.9345 99.0494,77.931 173.1478,63.233 20.3699,5.3654 39.4001,15.212 56.1629,27.8911"
                 id="path1692"
                 inkscape:connector-curvature="0" />
              <path
                 style="fill:none;stroke:#ffffff;stroke-width:3.07086611;stroke-linecap:square;stroke-linejoin:bevel;stroke-miterlimit:10;stroke-dasharray:none;stroke-opacity:1"
                 d="m 1320,-10.073914 c -93.7425,15.3448268 -103.6714,116.417794 -93.4215,180.852004 -87.2749,42.43905 -59.6329,167.82348 37.8299,166.08679 100.9154,1.1397 60.1412,163.13278 -19.9273,178.63156 -61.699,-10.07178 -145.3648,23.51136 -101.5387,99.37579 36.6806,61.55039 101.2051,96.27323 159.2054,132.3196 48.5759,68.45439 -54.6656,113.88437 -105.1143,139.92493 -61.7478,15.96299 -110.8948,57.87655 -122.1432,122.93174 -16.7321,64.7511 -80.75517,130.6014 -151.60135,95.8386 -66.49513,-22.8363 -105.01126,63.567 -173.24192,23.4364 -63.82048,3.5712 -44.29769,111.5396 -126.45334,94.5712 -91.17601,16.356 -40.89618,157.8073 14.9372,195.7618 41.07272,41.1863 65.71224,126.1877 8.33873,163.8553 -48.92124,54.3111 -172.40924,28.7842 -160.0252,128.0957 8.63973,58.7787 82.05125,116.7258 13.61143,171.3026 -46.60513,56.5016 -20.14165,123.0501 55.10603,97.0675 118.22945,-0.08 236.45956,0.3016 354.68845,-0.212 -16.1424,-70.102 -72.87347,-167.119 25.83831,-204.9637 63.45408,-31.8956 144.45986,-86.9094 208.45796,-31.2479 56.95,29.8883 134.1171,-1.3223 175.4527,63.1162"
                 id="path1694"
                 inkscape:connector-curvature="0" />
              <path
                 style="fill:none;stroke:#ffffff;stroke-width:3.07086611;stroke-linecap:square;stroke-linejoin:bevel;stroke-miterlimit:10;stroke-dasharray:none;stroke-opacity:1"
                 d="m -120,672.62733 c 90.782436,6.50586 57.332566,-95.53613 0,-114.50409 0,-246.04108 0,-492.082161 0,-738.12324 480,0 960,0 1440,0 0,47.08508 0,94.170153 0,141.255229 -92.241,22.33162 -150.3297,104.946897 -120.1743,199.086491 -80.2003,41.90094 -70.2775,162.14116 12.3063,195.36703 72.7091,0.68778 108.9458,79.83564 39.7963,119.16911 -62.3052,23.23765 -210.0965,4.0663 -159.405,113.28493 33.0099,79.94011 113.8991,124.13933 173.5001,182.27744 25.7803,62.29759 -70.7961,93.58335 -116.7613,112.65858 -90.2132,22.41116 -81.2425,129.13499 -137.0474,185.31399 -54.21331,49.974 -136.19954,-46.9509 -178.83907,26.4079 -51.62626,31.0233 -121.46878,-40.9182 -151.62687,42.716 -32.49711,74.085 -191.48503,51.3781 -129.55726,166.049 -7.15899,77.2594 38.99544,130.0485 84.13128,182.176 30.12065,97.1985 -95.28751,105.472 -147.12828,141.5873 -56.59233,60.8 -11.01058,138.6976 10.38216,202.2866 -41.91014,42.9006 -89.6346,180.8098 18.73363,150.3644 139.34434,0 278.68867,0 418.03301,0 -7.00659,-66.4004 -71.78091,-159.9235 24.78116,-191.1949 61.85644,-47.6775 137.51834,-40.6651 198.98674,-0.981 72.4839,-6.7226 140.5386,12.8265 159.8887,92.1838"
                 id="path1696"
                 inkscape:connector-curvature="0" />
              <path
                 style="fill:none;stroke:#ffffff;stroke-width:3.07086611;stroke-linecap:square;stroke-linejoin:bevel;stroke-miterlimit:10;stroke-dasharray:none;stroke-opacity:1"
                 d="M -120,701.19414 C -51.814913,715.32793 55.263072,664.11356 -26.842293,596.77391 -42.722078,547.63875 -123.99132,547.42173 -120,498.52279 c 0,-226.17426 0,-452.348527 0,-678.52279 480,0 960,0 1440,0 0,37.48167 0,74.96333 0,112.445001 -60.3252,32.858101 -150.8342,55.992033 -154.3524,139.395452 27.3377,71.973297 -35.6263,106.943297 -56.9482,162.039587 -6.4899,71.05823 53.9511,122.60117 99.922,165.64288 48.8824,66.64302 -101.051,52.58159 -135.4022,93.94014 -62.4923,68.85492 7.6337,159.59643 69.2448,200.90497 36.1225,43.06143 132.7347,96.72016 51.8658,145.19777 -57.8071,24.64508 -129.1843,49.36433 -148.7499,117.71372 -16.0299,92.96218 -102.51346,110.49908 -176.04767,72.06208 -39.92411,50.2692 -99.67601,36.6169 -148.30149,21.1256 -59.7107,35.0633 -79.42644,122.2523 -158.41174,125.7492 -111.393,4.0697 -31.93784,106.1839 -35.20762,168.4725 -24.32564,76.472 64.98739,102.3443 65.90797,167.4071 -22.17782,81.2293 -154.26448,55.4066 -150.62232,155.4473 -30.8422,69.1871 50.69206,144.2004 -5.47913,202.8234 -29.29607,61.017 -20.49369,138.4322 62.52506,109.6334 153.99661,0 307.99322,0 461.98983,0 2.19787,-53.4156 -42.26063,-126.9692 11.5348,-165.1739 49.15051,-45.0951 119.94371,-38.9982 169.74111,0.6446 99.0507,-17.4143 132.3957,47.3584 176.7916,121.4501"
                 id="path1698"
                 inkscape:connector-curvature="0" />
              <path
                 style="fill:none;stroke:#ffffff;stroke-width:3.07086611;stroke-linecap:square;stroke-linejoin:bevel;stroke-miterlimit:10;stroke-dasharray:none;stroke-opacity:1"
                 d="M -120,730.43228 C -64.212685,714.12787 50.45434,748.29568 58.556613,672.16425 33.983919,596.91485 -33.942317,529.98984 -104.27872,492.15645 -133.60664,474.7752 -114.59993,434.2452 -120,405.52659 c 0,-195.17553 0,-390.35106 0,-585.52659 480,0 960,0 1440,0 24.1408,77.6174 -39.8792,111.923817 -102.0021,135.692735 -99.9438,32.520845 -63.4586,144.017768 -101.6428,211.463105 -67.6372,28.3956 -45.2548,116.58159 -12.8425,164.29285 47.3885,33.89244 64.2109,120.56462 -17.5503,113.80624 -93.68724,13.8294 -93.82811,176.26558 -17.7332,218.58679 62.9222,35.49774 166.4796,142.82345 55.4657,182.9954 -64.8022,27.87721 -94.7015,95.07343 -131.35054,149.67997 -51.6991,57.44971 -125.054,-38.56396 -176.05248,27.42931 -55.50883,17.5247 -123.3277,-36.05718 -157.76812,41.0693 -40.6242,81.622 -137.20019,72.5265 -189.2196,130.0562 -8.08483,72.895 47.73869,140.8554 30.505,219.7176 40.65437,41.9625 70.99425,115.1409 -6.71219,138.8749 -68.52282,28.5918 -76.3568,115.9778 -79.13721,180.7468 36.30097,77.8274 -31.23364,138.8869 -22.38537,215.8449 -31.38922,48.4872 36.01056,23.7973 63.58339,29.7443 177.22742,0 354.45484,0 531.68226,0 2.22738,-53.7381 -23.45053,-134.391 40.37086,-161.1095 69.126,2.3751 142.5434,27.6992 205.9991,54.3752 14.3128,41.7467 49.7217,68.0391 68.8198,106.7343"
                 id="path1700"
                 inkscape:connector-curvature="0" />
              <path
                 style="fill:none;stroke:#ffffff;stroke-width:3.07086611;stroke-linecap:square;stroke-linejoin:bevel;stroke-miterlimit:10;stroke-dasharray:none;stroke-opacity:1"
                 d="M -120,774.68748 C -62.950723,726.73961 28.961386,777.46691 78.031419,720.09769 130.81779,664.72308 60.503125,599.36502 21.054607,559.65142 -11.766932,504.22275 -95.41196,482.91311 -105.03661,419.33633 -92.269278,358.70575 -133.65115,306.27335 -120,244.45473 c 0,-141.48491 0,-282.969819 0,-424.45473 479.2397,0 958.4794,0 1437.7191,0 2.1562,82.86668 -109.5622,94.738928 -157.2996,145.259923 -75.5113,54.008548 -40.1609,162.219477 -109.4739,219.430807 -46.7029,58.81003 43.3943,161.59393 20.7577,208.22024 -79.89699,39.68957 -89.32755,135.89742 -88.79509,213.4279 26.45349,81.82927 152.69189,91.20283 153.67879,186.06897 -43.7328,55.96881 -106.588,96.93927 -146.19303,157.34683 -46.3158,77.66013 -137.64886,-24.39655 -195.83354,43.35357 -65.18189,-4.47885 -136.42657,-5.48775 -175.14372,63.31756 -42.33692,81.5942 -177.70392,47.8126 -188.88026,147.3779 10.74288,71.8085 53.85084,136.4799 36.73883,214.3029 43.93121,52.8802 27.76983,109.9532 -29.55409,142.4284 -40.22884,65.846 -50.18146,147.9153 -41.72099,223.7553 -42.11618,48.5948 -30.60587,116.5047 -59.59636,168.1662 -45.18525,44.8466 21.06689,22.179 47.41459,27.5435 210.13085,0 420.26171,0 630.39257,0 -4.2502,-61.395 19.8942,-154.6215 99.5581,-108.7707 73.8768,3.6803 100.432,60.8224 148.2738,108.7707"
                 id="path1702"
                 inkscape:connector-curvature="0" />
              <path
                 style="fill:none;stroke:#ffffff;stroke-width:3.07086611;stroke-linecap:square;stroke-linejoin:bevel;stroke-miterlimit:10;stroke-dasharray:none;stroke-opacity:1"
                 d="M -120,855.84373 C -95.380113,756.29846 16.823218,789.51757 86.005259,755.61752 174.58304,713.02348 122.20295,611.95128 67.586051,565.48372 25.415242,503.04793 -87.752815,464.26786 -59.105614,375.20808 -38.847797,305.91107 -136.13419,297.25153 -120,237.79912 c 0,-139.266371 0,-278.532746 0,-417.79912 462.60013,0 925.20027,0 1387.8004,0 7.3285,59.50829 -72.7847,81.678755 -111.4592,113.440409 -55.5888,44.070648 -81.1073,114.025877 -93.5137,181.791621 -53.0447,54.1324 -73.93144,111.45118 -41.0679,182.34201 22.2551,70.95135 -45.89735,116.52886 -52.89029,182.18852 -10.45527,65.2704 -52.72875,148.63931 25.80778,192.41643 49.60621,32.14633 161.26211,97.05257 76.03991,155.4032 -54.9971,37.31207 -85.27613,133.67483 -161.22514,119.38171 -71.08537,-34.17482 -128.55444,39.06467 -200.12684,14.08182 -86.3696,7.3133 -131.93384,95.39458 -204.0478,133.07838 -79.55351,11.4138 -136.67789,110.5835 -87.55689,181.0754 36.82404,62.0346 -14.93034,139.8495 40.14866,196.0727 -21.97485,69.5422 -88.45207,122.6067 -80.55354,206.4241 12.47673,83.0582 -47.63935,134.2393 -58.78767,209.6783 -10.75698,45.7313 -110.26663,106.5808 -10.22985,92.6248 245.37806,0 490.75611,0 736.13417,0 15.8447,-84.3681 120.5939,-71.1701 157.6048,-9.3016 l 9.793,9.3016"
                 id="path1704"
                 inkscape:connector-curvature="0" />
              <path
                 style="fill:none;stroke:#ffffff;stroke-width:3.07086611;stroke-linecap:square;stroke-linejoin:bevel;stroke-miterlimit:10;stroke-dasharray:none;stroke-opacity:1"
                 d="M -120,896.57502 C -80.533868,806.79865 13.585054,802.59597 92.228576,780.13487 168.11773,758.25563 196.53712,669.52122 139.84451,612.50809 98.342754,543.44336 31.300392,496.6729 -17.549446,434.05921 -24.46407,367.69956 -13.888543,255.96283 -104.14829,243.69796 -137.10321,221.63896 -113.18623,173.78204 -120,139.77083 c 0,-106.590278 0,-213.180554 0,-319.77083 445.54593,0 891.09187,0 1336.6378,0 -3.0039,74.75163 -115.7568,94.55221 -135.3396,170.37375 -26.8188,76.094866 -64.066,146.31594 -113.44368,209.57308 1.93808,58.08752 47.21068,122.6556 3.11444,177.69842 -29.1802,79.9084 -67.4638,169.44253 -50.16054,255.28149 18.96801,72.93514 183.06508,88.51149 127.93758,179.37621 -49.58518,69.91241 -117.00663,130.95159 -206.69214,96.8619 -72.41383,38.50353 -157.7148,8.76626 -230.0724,51.2883 -67.76669,32.7921 -97.4884,120.17365 -179.7853,126.24205 -54.97246,24.0513 -50.77554,102.8613 -58.38216,154.7622 43.14431,68.0598 -0.4906,150.0873 42.02852,216.956 9.98198,70.7658 -76.75101,126.4238 -59.29467,207.6926 -11.21313,89.6918 -54.76292,177.4769 -103.47391,249.5952 -48.43361,29.8877 -65.88084,80.0584 1.35914,64.2988 283.61234,0 567.22468,0 850.83702,0 13.9468,-2.211 31.7532,-15.3825 43.4238,0"
                 id="path1706"
                 inkscape:connector-curvature="0" />
              <path
                 style="fill:none;stroke:#ffffff;stroke-width:3.07086611;stroke-linecap:square;stroke-linejoin:bevel;stroke-miterlimit:10;stroke-dasharray:none;stroke-opacity:1"
                 d="M -120,927.93637 C -67.603306,861.59945 -2.8392967,815.23344 81.4143,813.83351 133.46973,786.98707 203.19264,752.5827 209.13122,687.28364 187.85473,619.16932 136.45008,565.19892 96.397207,507.64883 50.236467,470.23389 -9.2495303,422.05583 11.678073,354.30457 22.07407,284.6626 -35.902961,209.28618 -105.26284,199.52907 -136.73115,182.14922 -113.43748,117.22901 -120,78.621233 c 0,-86.2070779 0,-172.414155 0,-258.621233 429.63427,0 859.26853,0 1288.9028,0 -7.4015,64.5008 -91.3767,102.045604 -109.2462,170.3442589 C 1026.3287,67.407546 977.60661,135.76825 931.55229,205.45141 c 8.16642,65.79199 46.78718,133.90612 -14.67847,188.92131 -4.03304,96.95212 -76.90863,198.94515 -5.48072,289.40002 53.38673,32.09522 157.114,85.03431 79.78948,153.21424 -40.88347,84.08034 -132.25526,27.78381 -196.98407,55.07626 -62.7825,25.40824 -136.41262,3.44047 -197.89182,37.46576 -66.04471,32.33953 -96.95903,114.0914 -172.66009,130.59 -73.42627,32.6344 -63.22566,120.844 -74.51578,188.3613 21.49926,74.1388 4.34697,154.2465 37.48758,225.6534 -30.07104,65.3326 -63.5785,128.9564 -54.67733,205.0288 -5.90896,72.8228 -70.04515,119.1928 -87.55544,189.1281 -28.29232,37.6805 -87.71159,58.8773 -91.50792,111.7094"
                 id="path1708"
                 inkscape:connector-curvature="0" />
              <path
                 style="fill:none;stroke:#ffffff;stroke-width:3.07086611;stroke-linecap:square;stroke-linejoin:bevel;stroke-miterlimit:10;stroke-dasharray:none;stroke-opacity:1"
                 d="m -120,1627.954 c 63.485472,-76.1826 -25.3157,-166.7796 -0.074,-254.1076 0.28303,-139.173 -0.0515,-278.4012 0.074,-417.60079 C -56.476538,910.14907 -10.580496,832.67848 79.742666,844.42941 143.83196,811.73313 217.47343,766.95128 244.30873,697.32389 224.6989,609.93793 150.85212,539.50581 102.50202,466.65488 -0.27447694,430.06665 75.564859,318.86247 22.612374,252.74426 2.1986748,186.45567 -86.76565,176.33047 -120,148.33266 c 0,-109.444217 0,-218.888438 0,-328.33266 415.53587,0 831.07173,0 1246.6076,0 -26.3186,82.287057 -91.2909,155.133751 -129.16665,236.26226 -32.41353,71.86034 -120.52342,132.19645 -100.38389,218.21843 8.48305,84.28689 -21.03913,174.71019 -47.38486,255.86053 -10.51721,63.82095 6.45105,136.75459 48.93616,185.73705 75.62937,14.07202 112.30704,117.34855 21.23867,139.79175 -84.06023,-15.03622 -161.44262,25.37669 -245.24904,23.57747 -72.80702,4.29131 -137.19911,44.56642 -182.32287,100.14393 -39.65183,56.31698 -134.85143,56.06308 -145.69271,132.71128 -7.91348,73.7266 -33.1464,144.6072 -14.86046,219.5691 -9.76554,59.2627 37.71267,115.6265 10.87965,171.7566 -37.54973,48.2348 -37.58817,111.1265 -36.05237,169.3873 -19.93712,64.026 -57.25813,126.7846 -101.71444,175.2833 -37.9376,37.5441 -100.03714,72.4946 -100.7824,131.701"
                 id="path1710"
                 inkscape:connector-curvature="0" />
              <path
                 style="fill:none;stroke:#ffffff;stroke-width:3.07086611;stroke-linecap:square;stroke-linejoin:bevel;stroke-miterlimit:10;stroke-dasharray:none;stroke-opacity:1"
                 d="m -120,1669.99 c 44.741755,-42.5652 72.967552,-106.3222 44.493356,-166.2573 -27.593386,-80.6946 11.861917,-170.0982 -30.415926,-246.1167 -25.67062,-33.6656 -9.62674,-78.9038 -14.07743,-118.4879 0,-50.3961 0,-100.7923 0,-151.18846 C -57.195105,965.43259 -30.914471,879.84445 39.548257,879.07356 124.73919,870.15003 184.73518,803.56834 246.18198,751.26925 306.21519,697.42154 264.30591,621.21781 216.59257,576.82003 173.16086,520.28489 159.90994,451.01264 91.463136,417.92398 63.217824,356.39864 119.60208,276.86078 46.780276,225.44602 17.115568,152.27693 -83.984633,154.59346 -121.10334,109.99698 -118.63497,13.531856 -120.65811,-83.347716 -120,-180 c 402.20697,0 804.41393,0 1206.6209,0 -8.6335,64.32328 -52.9567,116.538851 -78.2955,174.8138961 C 959.47441,67.50468 914.87926,143.19776 861.92322,212.59404 c -21.87827,90.67897 9.38126,191.26306 -33.62018,277.88535 -28.94529,79.8272 -5.67372,169.61002 37.7479,239.31276 26.86641,26.47555 99.86585,84.79123 15.62694,87.97696 -77.60412,-2.82114 -145.01575,45.39501 -224.22061,38.97091 -91.46208,3.26829 -151.74607,73.93055 -214.76776,129.90561 -50.73673,38.44517 -134.64214,65.20227 -119.16055,146.03107 -17.44557,72.1195 -32.68053,145.6676 -18.58475,221.378 13.26223,68.787 25.50383,135.1219 -17.22623,197.1748 -17.845,71.0375 4.96464,152.2671 -53.40824,210.207 -42.17854,55.447 -99.84124,95.4598 -142.195723,151.2085 -15.848753,18.332 -30.083833,42.7068 -32.230799,67.355"
                 id="path1712"
                 inkscape:connector-curvature="0" />
              <path
                 style="fill:none;stroke:#ffffff;stroke-width:3.07086611;stroke-linecap:square;stroke-linejoin:bevel;stroke-miterlimit:10;stroke-dasharray:none;stroke-opacity:1"
                 d="m -120,1709.9744 c 44.715965,-51.9191 104.881368,-111.3805 79.034152,-187.0177 -17.568604,-81.4923 6.9042,-166.6716 -18.128919,-246.3102 -8.077787,-52.8516 -72.634643,-79.4886 -60.905233,-134.7397 0,-39.7019 0,-79.4038 0,-119.1057 C -55.813729,998.82024 -25.533173,922.54738 41.286544,908.11105 135.03287,888.3903 207.72133,821.85924 274.11854,757.11551 316.30187,706.6106 316.19526,617.80642 259.26697,577.37783 200.24705,524.99104 196.5878,439.14322 126.83449,395.54982 144.14645,319.08196 123.87034,233.08895 53.391361,182.61706 14.18416,120.5923 -91.151949,126.87868 -120,78.907464 c 0,-86.302488 0,-172.604976 0,-258.907464 111.7327349,3.14404 225.02038,-8.43395 335.23606,10.44214 102.60211,-16.80274 206.80454,-8.52601 310.38355,-10.44214 176.98623,0 353.97246,0 530.95869,0 -21.9561,126.441584 -114.9141,220.741852 -175.19427,329.24399 -67.97695,49.21181 -72.21114,133.8475 -64.26467,210.67173 16.54637,76.77461 -37.55959,145.01499 -32.79441,222.13121 -1.94818,70.02103 55.01513,136.52602 21.69974,206.27681 -83.51428,57.70705 -195.23598,28.5689 -278.42158,89.26645 -61.67336,59.38777 -128.92462,110.16767 -199.39139,157.67481 -35.01898,68.6126 -36.00182,152.6621 -54.18845,228.5241 -13.70361,81.897 38.3784,168.6821 -1.18049,244.3231 -37.49816,69.4612 -1.0041,156.1691 -49.74625,220.7907 -40.36687,62.3701 -106.91529,99.1429 -150.266329,159.9407 -24.274218,25.6521 -45.12133,56.0572 -52.423306,91.1564"
                 id="path1714"
                 inkscape:connector-curvature="0" />
              <path
                 style="fill:none;stroke:#ffffff;stroke-width:3.07086611;stroke-linecap:square;stroke-linejoin:bevel;stroke-miterlimit:10;stroke-dasharray:none;stroke-opacity:1"
                 d="M -120,1764.4462 C -92.959762,1692.4028 -2.1880397,1650.569 -9.5110078,1564.7681 -20.760035,1455.276 10.729855,1337.4446 -41.350718,1235.4425 -81.248388,1168.6647 -180.28252,1076.878 -65.445457,1025.9271 -12.047667,969.88781 51.32793,926.15791 125.47144,903.14672 200.80667,865.50795 273.92102,810.91564 315.999,737.52047 337.51411,672.73512 349.39989,585.3897 277.11176,546.78547 230.73043,493.60532 205.49128,421.55331 170.12666,366.24478 187.40414,248.99905 85.217407,157.03429 -6.4491711,103.83601 -62.121175,78.291845 -146.09938,77.942377 -120,-5.4515157 -120,-63.634344 -120,-121.81717 -120,-180 c 78.888707,0 157.777413,0 236.66612,0 48.49673,56.18598 140.57492,32.0649 205.28699,21.31701 39.1358,-16.65701 78.63384,-25.45925 121.15744,-21.31701 195.08735,0 390.1747,0 585.26205,0 -15.023,121.545511 -107.69491,208.895037 -163.23169,312.34261 -69.79753,48.20756 -84.61779,131.61744 -82.50071,210.79237 19.65592,79.26584 -21.32626,152.72321 -30.71924,230.37535 -4.69386,61.03303 40.54931,127.23003 8.23388,184.51787 -48.26055,72.67986 -155.35067,36.93214 -221.76075,87.78782 -71.39877,33.78917 -113.39156,106.08897 -184.91892,140.31305 -80.80858,32.90603 -64.56037,124.53323 -85.44846,191.70533 -34.82558,90.2585 -16.24829,190.4539 -10.02462,284.0759 -20.83035,62.8534 -37.4628,127.98 -37.52138,195.4325 -6.18121,62.9578 -59.41259,101.2415 -104.0726,137.8755 C 69.016413,1855.8874 4.0487287,1902.9349 -18.790975,1980"
                 id="path1716"
                 inkscape:connector-curvature="0" />
            </g>
            <g
               transform="scale(11.811024)"
               id="g1718"
               style="stroke:#ffffff" />
          </g>
        </g>
        <g
           id="g1720"
           style="">
          <g
             transform="scale(11.811024)"
             id="g1722"
             style="" />
        </g>
        <g
           id="g1724"
           style="">
          <g
             clip-path="url(#clipPath1730-7)"
             id="g1726"
             style="">
            <g
               id="g1732"
               style="" />
            <g
               transform="scale(11.811024)"
               id="g1734"
               style="" />
            <g
               transform="scale(11.811024)"
               id="g1736"
               style="" />
          </g>
        </g>
        <g
           id="g1738"
           style="">
          <g
             id="g1740"
             style="" />
        </g>
      </g>
    </g>
  </g>
  <g
     inkscape:label="Layer 1"
     inkscape:groupmode="layer"
     id="layer1"
     transform="translate(0,-144.59998)">
    <rect
       style="fill:#353b43;fill-opacity:1;stroke:none;stroke-width:0.25866851;stroke-miterlimit:4;stroke-dasharray:none;stroke-opacity:1"
       id="rect1215-9"
       width="101.6"
       height="152.39999"
       x="-109.42304"
       y="143.95999" />
    <g
       transform="matrix(0.43166175,0,0,0.43166175,72.394087,107.22232)"
       id="g1042">
      <flowRoot
         transform="matrix(0.26458333,0,0,0.26458333,-126.2474,272.80725)"
         style="font-style:normal;font-weight:normal;font-size:40px;line-height:1.25;font-family:sans-serif;letter-spacing:0px;word-spacing:0px;fill:#3cc6b9;fill-opacity:1;stroke:none"
         id="flowRoot10-1"
         xml:space="preserve"><flowRegion
           style="fill:#3cc6b9;fill-opacity:1"
           id="flowRegion12-2"><rect
             style="fill:#3cc6b9;fill-opacity:1"
             y="271.09113"
             x="205.71428"
             height="582.85712"
             width="554.28571"
             id="rect14-70" /></flowRegion><flowPara
           style="font-style:normal;font-variant:normal;font-weight:bold;font-stretch:normal;font-size:192px;font-family:'TeX Gyre Adventor';-inkscape-font-specification:'TeX Gyre Adventor Bold';fill:#3cc6b9;fill-opacity:1"
           id="flowPara16-9">Q</flowPara></flowRoot>      <flowRoot
         style="font-style:normal;font-weight:normal;font-size:40px;line-height:1.25;font-family:sans-serif;letter-spacing:0px;word-spacing:0px;fill:#168a82;fill-opacity:1;stroke:none"
         id="flowRoot10-3-3"
         xml:space="preserve"
         transform="matrix(0.27199939,0,0,0.26458333,-127.68644,272.87904)"><flowRegion
           style="fill:#168a82;fill-opacity:1"
           id="flowRegion12-6-6"><rect
             style="fill:#168a82;fill-opacity:1"
             y="271.09113"
             x="205.71428"
             height="582.85712"
             width="554.28571"
             id="rect14-7-0" /></flowRegion><flowPara
           style="font-style:normal;font-variant:normal;font-weight:bold;font-stretch:normal;font-size:192px;font-family:'TeX Gyre Adventor';-inkscape-font-specification:'TeX Gyre Adventor Bold';fill:#168a82;fill-opacity:1"
           id="flowPara16-5-6">C</flowPara></flowRoot>    </g>
    <flowRoot
       transform="matrix(0.0537042,0,0,0.05223995,1.1010264,266.88103)"
       xml:space="preserve"
       id="flowRoot10-3-2"
       style="font-style:normal;font-variant:normal;font-weight:normal;font-stretch:normal;font-size:40px;line-height:1.25;font-family:Anaheim;-inkscape-font-specification:Anaheim;letter-spacing:0px;word-spacing:0px;fill:#168a82;fill-opacity:1;stroke:none;stroke-width:4.77655745;stroke-miterlimit:4;stroke-dasharray:none"><flowRegion
         id="flowRegion12-6-61"
         style="font-style:normal;font-variant:normal;font-weight:normal;font-stretch:normal;font-family:Anaheim;-inkscape-font-specification:Anaheim;fill:#168a82;fill-opacity:1;stroke-width:4.77655745;stroke-miterlimit:4;stroke-dasharray:none"><rect
           id="rect14-7-8"
           width="2199.084"
           height="511.2305"
           x="205.71428"
           y="271.09113"
           style="font-style:normal;font-variant:normal;font-weight:normal;font-stretch:normal;font-family:Anaheim;-inkscape-font-specification:Anaheim;fill:#168a82;fill-opacity:1;stroke-width:4.77655745;stroke-miterlimit:4;stroke-dasharray:none" /></flowRegion><flowPara
         id="flowPara16-5-7"
         style="font-style:normal;font-variant:normal;font-weight:normal;font-stretch:normal;font-size:159.84790039px;font-family:Anaheim;-inkscape-font-specification:Anaheim;fill:#ffffff;fill-opacity:1;stroke:#ffffff;stroke-width:4.77655745;stroke-miterlimit:4;stroke-dasharray:none;stroke-opacity:1">www.QCooperative.net</flowPara></flowRoot>    <text
       id="text1046"
       y="164.40509"
       x="50.827534"
       style="font-style:normal;font-weight:normal;font-size:10.58333302px;line-height:1.25;font-family:sans-serif;letter-spacing:0px;word-spacing:0px;fill:#000000;fill-opacity:1;stroke:none;stroke-width:0.26458332"
       xml:space="preserve"><tspan
         style="font-style:normal;font-variant:normal;font-weight:bold;font-stretch:normal;font-family:'Quattrocento Sans';-inkscape-font-specification:'Quattrocento Sans Bold';text-align:center;text-anchor:middle;fill:#3cc6b9;fill-opacity:1;stroke-width:0.26458332"
         y="164.40509"
         x="50.827534"
         sodipodi:role="line"
         id="tspan1383">Supported QGIS?</tspan><tspan
         id="tspan1082"
         style="font-style:normal;font-variant:normal;font-weight:bold;font-stretch:normal;font-family:'Quattrocento Sans';-inkscape-font-specification:'Quattrocento Sans Bold';text-align:center;text-anchor:middle;fill:#ffffff;fill-opacity:1;stroke-width:0.26458332"
         y="177.63426"
         x="50.827534"
         sodipodi:role="line" /></text>
    <flowRoot
       transform="matrix(0.26458333,0,0,0.26458333,-5.416135e-7,144.59998)"
       style="font-style:normal;font-weight:normal;font-size:40px;line-height:1.25;font-family:sans-serif;letter-spacing:0px;word-spacing:0px;fill:#000000;fill-opacity:1;stroke:none"
       id="flowRoot1050"
       xml:space="preserve"><flowRegion
         id="flowRegion1052"><rect
           y="120.4212"
           x="24.243662"
           height="360.62445"
           width="346.48233"
           id="rect1054" /></flowRegion><flowPara
         id="flowPara1056" /></flowRoot>    <flowRoot
       transform="matrix(0.26458333,0,0,0.26458333,-5.416135e-7,144.59998)"
       style="font-style:normal;font-weight:normal;font-size:40px;line-height:1.25;font-family:sans-serif;letter-spacing:0px;word-spacing:0px;fill:#000000;fill-opacity:1;stroke:none"
       id="flowRoot1058"
       xml:space="preserve"><flowRegion
         id="flowRegion1060"><rect
           y="135.57349"
           x="19.192898"
           height="351.53308"
           width="350.52292"
           id="rect1062" /></flowRegion><flowPara
         id="flowPara1119"
         style="font-size:16px;line-height:0" /></flowRoot>    <text
       xml:space="preserve"
       style="font-style:normal;font-weight:normal;font-size:6.52097321px;line-height:1.25;font-family:sans-serif;letter-spacing:0px;word-spacing:0px;fill:#ffffff;fill-opacity:1;stroke:none;stroke-width:0.66299999;stroke-miterlimit:4;stroke-dasharray:none"
       x="50.88895"
       y="230.25632"
       id="text1357"><tspan
         sodipodi:role="line"
         id="tspan1355"
         x="50.88895"
         y="230.25632"
         style="font-style:normal;font-variant:normal;font-weight:normal;font-stretch:normal;font-family:'Quattrocento Sans';-inkscape-font-specification:'Quattrocento Sans';text-align:center;text-anchor:middle;fill:#ffffff;stroke-width:0.66299999;stroke-miterlimit:4;stroke-dasharray:none">We are</tspan><tspan
         sodipodi:role="line"
         x="50.88895"
         y="238.44391"
         style="font-style:normal;font-variant:normal;font-weight:normal;font-stretch:normal;font-family:'Quattrocento Sans';-inkscape-font-specification:'Quattrocento Sans';text-align:center;text-anchor:middle;fill:#ffffff;stroke-width:0.66299999;stroke-miterlimit:4;stroke-dasharray:none"
         id="tspan1369">Core <tspan
   style="font-style:normal;font-variant:normal;font-weight:bold;font-stretch:normal;font-family:'Quattrocento Sans';-inkscape-font-specification:'Quattrocento Sans Bold';fill:#3cc6b9;fill-opacity:1;stroke:#3cc6b9;stroke-width:0.66299999;stroke-miterlimit:4;stroke-dasharray:none;stroke-opacity:1"
   id="tspan1419"></tspan> Open <tspan
   style="fill:#3cc6b9;fill-opacity:1;stroke:#3cc6b9;stroke-width:0.66299999;stroke-miterlimit:4;stroke-dasharray:none;stroke-opacity:1"
   id="tspan1427"></tspan> Global</tspan></text>
    <text
       id="text1046-4"
       y="200.34605"
       x="50.404144"
       style="font-style:normal;font-weight:normal;font-size:10.58333302px;line-height:1.25;font-family:sans-serif;letter-spacing:0px;word-spacing:0px;fill:#000000;fill-opacity:1;stroke:none;stroke-width:0.26458332"
       xml:space="preserve"><tspan
         id="tspan1082-5"
         style="font-style:normal;font-variant:normal;font-weight:bold;font-stretch:normal;font-size:12.69999981px;font-family:'Quattrocento Sans';-inkscape-font-specification:'Quattrocento Sans Bold';text-align:center;text-anchor:middle;fill:#ffffff;fill-opacity:1;stroke-width:0.26458332"
         y="200.34605"
         x="50.404144"
         sodipodi:role="line">We can help!</tspan></text>
    <text
       xml:space="preserve"
       style="font-style:normal;font-weight:normal;font-size:6.52097321px;line-height:1.25;font-family:sans-serif;letter-spacing:0px;word-spacing:0px;fill:#ffffff;fill-opacity:1;stroke:none;stroke-width:0.66299999;stroke-miterlimit:4;stroke-dasharray:none"
       x="-58.313858"
       y="195.35629"
       id="text1357-0"><tspan
         sodipodi:role="line"
         id="tspan1355-2"
         x="-57.517841"
         y="195.35629"
         style="font-style:normal;font-variant:normal;font-weight:normal;font-stretch:normal;font-family:'Quattrocento Sans';-inkscape-font-specification:'Quattrocento Sans';text-align:center;text-anchor:middle;fill:#ffffff;stroke-width:0.66299999;stroke-miterlimit:4;stroke-dasharray:none">Core and plugins development </tspan><tspan
         sodipodi:role="line"
         x="-58.313858"
         y="203.54388"
         style="font-style:normal;font-variant:normal;font-weight:normal;font-stretch:normal;font-family:'Quattrocento Sans';-inkscape-font-specification:'Quattrocento Sans';text-align:center;text-anchor:middle;fill:#ffffff;stroke-width:0.66299999;stroke-miterlimit:4;stroke-dasharray:none"
         id="tspan2343">Training</tspan><tspan
         sodipodi:role="line"
         x="-58.313858"
         y="211.73146"
         style="font-style:normal;font-variant:normal;font-weight:normal;font-stretch:normal;font-family:'Quattrocento Sans';-inkscape-font-specification:'Quattrocento Sans';text-align:center;text-anchor:middle;fill:#ffffff;stroke-width:0.66299999;stroke-miterlimit:4;stroke-dasharray:none"
         id="tspan1549">Qualified support</tspan><tspan
         sodipodi:role="line"
         x="-57.517841"
         y="219.91905"
         style="font-style:normal;font-variant:normal;font-weight:normal;font-stretch:normal;font-family:'Quattrocento Sans';-inkscape-font-specification:'Quattrocento Sans';text-align:center;text-anchor:middle;fill:#ffffff;stroke-width:0.66299999;stroke-miterlimit:4;stroke-dasharray:none"
         id="tspan1551">Web GIS and web services </tspan><tspan
         sodipodi:role="line"
         x="-58.313858"
         y="228.10664"
         style="font-style:normal;font-variant:normal;font-weight:normal;font-stretch:normal;font-family:'Quattrocento Sans';-inkscape-font-specification:'Quattrocento Sans';text-align:center;text-anchor:middle;fill:#ffffff;stroke-width:0.66299999;stroke-miterlimit:4;stroke-dasharray:none"
         id="tspan1553">Data management</tspan><tspan
         sodipodi:role="line"
         x="-58.313858"
         y="236.29422"
         style="font-style:normal;font-variant:normal;font-weight:normal;font-stretch:normal;font-family:'Quattrocento Sans';-inkscape-font-specification:'Quattrocento Sans';text-align:center;text-anchor:middle;fill:#ffffff;stroke-width:0.66299999;stroke-miterlimit:4;stroke-dasharray:none"
         id="tspan1555">Spatial analysis</tspan><tspan
         sodipodi:role="line"
         x="-58.313858"
         y="244.48181"
         style="font-style:normal;font-variant:normal;font-weight:normal;font-stretch:normal;font-family:'Quattrocento Sans';-inkscape-font-specification:'Quattrocento Sans';text-align:center;text-anchor:middle;fill:#ffffff;stroke-width:0.66299999;stroke-miterlimit:4;stroke-dasharray:none"
         id="tspan1557">Data visualization</tspan><tspan
         sodipodi:role="line"
         x="-58.313858"
         y="252.6694"
         style="font-style:normal;font-variant:normal;font-weight:normal;font-stretch:normal;font-family:'Quattrocento Sans';-inkscape-font-specification:'Quattrocento Sans';text-align:center;text-anchor:middle;fill:#ffffff;stroke-width:0.66299999;stroke-miterlimit:4;stroke-dasharray:none"
         id="tspan1559">Quality assurance</tspan><tspan
         sodipodi:role="line"
         x="-58.313858"
         y="260.82062"
         style="font-style:normal;font-variant:normal;font-weight:normal;font-stretch:normal;font-family:'Quattrocento Sans';-inkscape-font-specification:'Quattrocento Sans';text-align:center;text-anchor:middle;fill:#ffffff;stroke-width:0.66299999;stroke-miterlimit:4;stroke-dasharray:none"
         id="tspan1369-5" /></text>
    <text
       xml:space="preserve"
       style="font-style:normal;font-weight:normal;font-size:6.52097321px;line-height:1.25;font-family:sans-serif;letter-spacing:0px;word-spacing:0px;fill:#ffffff;fill-opacity:1;stroke:none;stroke-width:0.66299999;stroke-miterlimit:4;stroke-dasharray:none"
       x="-57.881977"
       y="277.20303"
       id="text1357-0-5"><tspan
         sodipodi:role="line"
         x="-57.881977"
         y="277.20303"
         style="font-style:normal;font-variant:normal;font-weight:normal;font-stretch:normal;font-family:'Quattrocento Sans';-inkscape-font-specification:'Quattrocento Sans';text-align:center;text-anchor:middle;fill:#3cc6b9;fill-opacity:1;stroke-width:0.66299999;stroke-miterlimit:4;stroke-dasharray:none"
         id="tspan1559-0">Contact us</tspan><tspan
         sodipodi:role="line"
         x="-57.881977"
         y="285.39062"
         style="font-style:normal;font-variant:normal;font-weight:normal;font-stretch:normal;font-family:'Quattrocento Sans';-inkscape-font-specification:'Quattrocento Sans';text-align:center;text-anchor:middle;fill:#ffffff;stroke-width:0.66299999;stroke-miterlimit:4;stroke-dasharray:none"
         id="tspan2341">info@qcooperative.net</tspan><tspan
         sodipodi:role="line"
         x="-57.881977"
         y="293.54184"
         style="font-style:normal;font-variant:normal;font-weight:normal;font-stretch:normal;font-family:'Quattrocento Sans';-inkscape-font-specification:'Quattrocento Sans';text-align:center;text-anchor:middle;fill:#ffffff;stroke-width:0.66299999;stroke-miterlimit:4;stroke-dasharray:none"
         id="tspan1369-5-7" /></text>
    <text
       xml:space="preserve"
       style="font-style:normal;font-weight:normal;font-size:6.52097321px;line-height:1.25;font-family:sans-serif;letter-spacing:0px;word-spacing:0px;fill:#ffffff;fill-opacity:1;stroke:none;stroke-width:0.66299999;stroke-miterlimit:4;stroke-dasharray:none"
       x="-58.656216"
       y="159.68719"
       id="text1357-7"><tspan
         sodipodi:role="line"
         x="-58.656216"
         y="159.68719"
         style="font-style:normal;font-variant:normal;font-weight:bold;font-stretch:normal;font-family:'Quattrocento Sans';-inkscape-font-specification:'Quattrocento Sans Bold';text-align:center;text-anchor:middle;fill:#3cc6b9;stroke-width:0.66299999;stroke-miterlimit:4;stroke-dasharray:none;fill-opacity:1"
         id="tspan1369-6">QGIS</tspan><tspan
         sodipodi:role="line"
         x="-58.656216"
         y="167.87479"
         style="font-style:normal;font-variant:normal;font-weight:bold;font-stretch:normal;font-family:'Quattrocento Sans';-inkscape-font-specification:'Quattrocento Sans Bold';text-align:center;text-anchor:middle;fill:#3cc6b9;stroke-width:0.66299999;stroke-miterlimit:4;stroke-dasharray:none;fill-opacity:1"
         id="tspan2337">QGIS Server</tspan><tspan
         sodipodi:role="line"
         x="-58.656216"
         y="176.06236"
         style="font-style:normal;font-variant:normal;font-weight:bold;font-stretch:normal;font-family:'Quattrocento Sans';-inkscape-font-specification:'Quattrocento Sans Bold';text-align:center;text-anchor:middle;fill:#3cc6b9;stroke-width:0.66299999;stroke-miterlimit:4;stroke-dasharray:none;fill-opacity:1"
         id="tspan2339">PostGIS</tspan></text>
  </g>
</svg>
